<svg width="250" height="250" viewBox="0 0 250 250" fill="none" xmlns="http://www.w3.org/2000/svg">
<rect x="25" y="25" width="200" height="200" rx="17" fill="#121212"/>
<path d="M123.077 56.739C123.629 54.8041 126.371 54.8041 126.923 56.739L138.792 98.3287C139.089 99.3666 140.155 99.9822 141.202 99.7198L183.154 89.2039C185.106 88.7147 186.477 91.0894 185.077 92.535L154.994 123.609C154.243 124.384 154.243 125.616 154.994 126.391L185.077 157.465C186.477 158.911 185.106 161.285 183.154 160.796L141.202 150.28C140.155 150.018 139.089 150.633 138.792 151.671L126.923 193.261C126.371 195.196 123.629 195.196 123.077 193.261L111.208 151.671C110.911 150.633 109.845 150.018 108.798 150.28L66.8458 160.796C64.8941 161.285 63.5231 158.911 64.9226 157.465L95.0058 126.391C95.7565 125.616 95.7565 124.384 95.0058 123.609L64.9226 92.535C63.5231 91.0894 64.8941 88.7147 66.8458 89.2039L108.798 99.7198C109.845 99.9822 110.911 99.3666 111.208 98.3287L123.077 56.739Z" fill="white"/>
</svg>
